# xmcd
#
# Track frame offsets: 
#        150
#        17127
#        30931
#        44749
#        61380
#        77374
#        94688
#        109488
#        125613
#        143604
#
# Disc length: 2157 seconds
#
# Revision: 0
# Processed by: cddbd v1.5.2PL0 Copyright (c) Steve Scherf et al.
# Submitted via: ExactAudioCopyFreeDBPlugin 1.0
#
DISCID=7e086b0a
DTITLE=Jamiah Rogers - Blues Superman
DYEAR=2017
DGENRE=Blues
TTITLE0=Blues Superman
TTITLE1=Bourbon St. Bounce
TTITLE2=Gone Too Long
TTITLE3=Blues Mama
TTITLE4=Foolproof
TTITLE5=Parental Advice
TTITLE6=Work
TTITLE7=Let the Tears Fall
TTITLE8=The Boy Next Door
TTITLE9=Don't Make Me Famous
EXTD=
EXTT0=
EXTT1=
EXTT2=
EXTT3=
EXTT4=
EXTT5=
EXTT6=
EXTT7=
EXTT8=
EXTT9=
PLAYORDER=
